<?xml version="1.0" encoding="UTF-8" standalone="no"?>
<!DOCTYPE svg PUBLIC "-//W3C//DTD SVG 1.1//EN"
 "http://www.w3.org/Graphics/SVG/1.1/DTD/svg11.dtd">
<!-- Generated by graphviz version 2.43.0 (0)
 -->
<!-- Title: Tree Pages: 1 -->
<svg width="593pt" height="358pt"
 viewBox="0.00 0.00 592.50 358.40" xmlns="http://www.w3.org/2000/svg" xmlns:xlink="http://www.w3.org/1999/xlink">
<g id="graph0" class="graph" transform="scale(1 1) rotate(0) translate(4 354.4)">
<title>Tree</title>
<polygon fill="white" stroke="transparent" points="-4,4 -4,-354.4 588.5,-354.4 588.5,4 -4,4"/>
<!-- 0 -->
<g id="node1" class="node">
<title>0</title>
<path fill="#f5ceb2" stroke="black" d="M352,-339C352,-339 227,-339 227,-339 221,-339 215,-333 215,-327 215,-327 215,-283 215,-283 215,-277 221,-271 227,-271 227,-271 352,-271 352,-271 358,-271 364,-277 364,-283 364,-283 364,-327 364,-327 364,-333 358,-339 352,-339"/>
<text text-anchor="start" x="254.5" y="-323.8" font-family="Helvetica,sans-Serif" font-size="14.00">Sex ≤ 0.5</text>
<text text-anchor="start" x="250" y="-308.8" font-family="Helvetica,sans-Serif" font-size="14.00">gini = 0.47</text>
<text text-anchor="start" x="236.5" y="-293.8" font-family="Helvetica,sans-Serif" font-size="14.00">samples = 668</text>
<text text-anchor="start" x="223" y="-278.8" font-family="Helvetica,sans-Serif" font-size="14.00">value = [415, 253]</text>
</g>
<!-- 1 -->
<g id="node2" class="node">
<title>1</title>
<path fill="#7ebfee" stroke="black" d="M268.5,-199C268.5,-199 152.5,-199 152.5,-199 146.5,-199 140.5,-193 140.5,-187 140.5,-187 140.5,-143 140.5,-143 140.5,-137 146.5,-131 152.5,-131 152.5,-131 268.5,-131 268.5,-131 274.5,-131 280.5,-137 280.5,-143 280.5,-143 280.5,-187 280.5,-187 280.5,-193 274.5,-199 268.5,-199"/>
<text text-anchor="start" x="167" y="-183.8" font-family="Helvetica,sans-Serif" font-size="14.00">Pclass ≤ 2.5</text>
<text text-anchor="start" x="171" y="-168.8" font-family="Helvetica,sans-Serif" font-size="14.00">gini = 0.38</text>
<text text-anchor="start" x="157.5" y="-153.8" font-family="Helvetica,sans-Serif" font-size="14.00">samples = 229</text>
<text text-anchor="start" x="148.5" y="-138.8" font-family="Helvetica,sans-Serif" font-size="14.00">value = [59, 170]</text>
</g>
<!-- 0&#45;&gt;1 -->
<g id="edge1" class="edge">
<title>0&#45;&gt;1</title>
<path fill="none" stroke="black" d="M270.58,-270.95C259.76,-252.05 246.09,-228.17 234.52,-207.96"/>
<polygon fill="black" stroke="black" points="237.55,-206.2 229.54,-199.26 231.47,-209.68 237.55,-206.2"/>
<text text-anchor="middle" x="222.98" y="-219.69" font-family="Helvetica,sans-Serif" font-size="14.00">True</text>
</g>
<!-- 2 -->
<g id="node5" class="node">
<title>2</title>
<path fill="#eb9e67" stroke="black" d="M426.5,-199C426.5,-199 310.5,-199 310.5,-199 304.5,-199 298.5,-193 298.5,-187 298.5,-187 298.5,-143 298.5,-143 298.5,-137 304.5,-131 310.5,-131 310.5,-131 426.5,-131 426.5,-131 432.5,-131 438.5,-137 438.5,-143 438.5,-143 438.5,-187 438.5,-187 438.5,-193 432.5,-199 426.5,-199"/>
<text text-anchor="start" x="333" y="-183.8" font-family="Helvetica,sans-Serif" font-size="14.00">Age ≤ 6.5</text>
<text text-anchor="start" x="329" y="-168.8" font-family="Helvetica,sans-Serif" font-size="14.00">gini = 0.31</text>
<text text-anchor="start" x="315.5" y="-153.8" font-family="Helvetica,sans-Serif" font-size="14.00">samples = 439</text>
<text text-anchor="start" x="306.5" y="-138.8" font-family="Helvetica,sans-Serif" font-size="14.00">value = [356, 83]</text>
</g>
<!-- 0&#45;&gt;2 -->
<g id="edge4" class="edge">
<title>0&#45;&gt;2</title>
<path fill="none" stroke="black" d="M308.42,-270.95C319.24,-252.05 332.91,-228.17 344.48,-207.96"/>
<polygon fill="black" stroke="black" points="347.53,-209.68 349.46,-199.26 341.45,-206.2 347.53,-209.68"/>
<text text-anchor="middle" x="356.02" y="-219.69" font-family="Helvetica,sans-Serif" font-size="14.00">False</text>
</g>
<!-- 3 -->
<g id="node3" class="node">
<title>3</title>
<path fill="#40a0e6" stroke="black" d="M119,-62.5C119,-62.5 12,-62.5 12,-62.5 6,-62.5 0,-56.5 0,-50.5 0,-50.5 0,-21.5 0,-21.5 0,-15.5 6,-9.5 12,-9.5 12,-9.5 119,-9.5 119,-9.5 125,-9.5 131,-15.5 131,-21.5 131,-21.5 131,-50.5 131,-50.5 131,-56.5 125,-62.5 119,-62.5"/>
<text text-anchor="start" x="26" y="-47.3" font-family="Helvetica,sans-Serif" font-size="14.00">gini = 0.06</text>
<text text-anchor="start" x="12.5" y="-32.3" font-family="Helvetica,sans-Serif" font-size="14.00">samples = 120</text>
<text text-anchor="start" x="8" y="-17.3" font-family="Helvetica,sans-Serif" font-size="14.00">value = [4, 116]</text>
</g>
<!-- 1&#45;&gt;3 -->
<g id="edge2" class="edge">
<title>1&#45;&gt;3</title>
<path fill="none" stroke="black" d="M172.78,-130.96C151.11,-111.98 124,-88.24 102.46,-69.37"/>
<polygon fill="black" stroke="black" points="104.62,-66.61 94.79,-62.66 100.01,-71.88 104.62,-66.61"/>
</g>
<!-- 4 -->
<g id="node4" class="node">
<title>4</title>
<path fill="#fffdfb" stroke="black" d="M268,-62.5C268,-62.5 161,-62.5 161,-62.5 155,-62.5 149,-56.5 149,-50.5 149,-50.5 149,-21.5 149,-21.5 149,-15.5 155,-9.5 161,-9.5 161,-9.5 268,-9.5 268,-9.5 274,-9.5 280,-15.5 280,-21.5 280,-21.5 280,-50.5 280,-50.5 280,-56.5 274,-62.5 268,-62.5"/>
<text text-anchor="start" x="179.5" y="-47.3" font-family="Helvetica,sans-Serif" font-size="14.00">gini = 0.5</text>
<text text-anchor="start" x="161.5" y="-32.3" font-family="Helvetica,sans-Serif" font-size="14.00">samples = 109</text>
<text text-anchor="start" x="157" y="-17.3" font-family="Helvetica,sans-Serif" font-size="14.00">value = [55, 54]</text>
</g>
<!-- 1&#45;&gt;4 -->
<g id="edge3" class="edge">
<title>1&#45;&gt;4</title>
<path fill="none" stroke="black" d="M211.54,-130.96C212.1,-113.15 212.79,-91.14 213.37,-72.9"/>
<polygon fill="black" stroke="black" points="216.88,-72.76 213.69,-62.66 209.88,-72.54 216.88,-72.76"/>
</g>
<!-- 5 -->
<g id="node6" class="node">
<title>5</title>
<path fill="#88c4ef" stroke="black" d="M414.5,-62.5C414.5,-62.5 316.5,-62.5 316.5,-62.5 310.5,-62.5 304.5,-56.5 304.5,-50.5 304.5,-50.5 304.5,-21.5 304.5,-21.5 304.5,-15.5 310.5,-9.5 316.5,-9.5 316.5,-9.5 414.5,-9.5 414.5,-9.5 420.5,-9.5 426.5,-15.5 426.5,-21.5 426.5,-21.5 426.5,-50.5 426.5,-50.5 426.5,-56.5 420.5,-62.5 414.5,-62.5"/>
<text text-anchor="start" x="326" y="-47.3" font-family="Helvetica,sans-Serif" font-size="14.00">gini = 0.41</text>
<text text-anchor="start" x="317" y="-32.3" font-family="Helvetica,sans-Serif" font-size="14.00">samples = 21</text>
<text text-anchor="start" x="312.5" y="-17.3" font-family="Helvetica,sans-Serif" font-size="14.00">value = [6, 15]</text>
</g>
<!-- 2&#45;&gt;5 -->
<g id="edge5" class="edge">
<title>2&#45;&gt;5</title>
<path fill="none" stroke="black" d="M367.72,-130.96C367.3,-113.15 366.78,-91.14 366.35,-72.9"/>
<polygon fill="black" stroke="black" points="369.84,-72.57 366.11,-62.66 362.84,-72.74 369.84,-72.57"/>
</g>
<!-- 6 -->
<g id="node7" class="node">
<title>6</title>
<path fill="#ea995f" stroke="black" d="M572.5,-62.5C572.5,-62.5 456.5,-62.5 456.5,-62.5 450.5,-62.5 444.5,-56.5 444.5,-50.5 444.5,-50.5 444.5,-21.5 444.5,-21.5 444.5,-15.5 450.5,-9.5 456.5,-9.5 456.5,-9.5 572.5,-9.5 572.5,-9.5 578.5,-9.5 584.5,-15.5 584.5,-21.5 584.5,-21.5 584.5,-50.5 584.5,-50.5 584.5,-56.5 578.5,-62.5 572.5,-62.5"/>
<text text-anchor="start" x="475" y="-47.3" font-family="Helvetica,sans-Serif" font-size="14.00">gini = 0.27</text>
<text text-anchor="start" x="461.5" y="-32.3" font-family="Helvetica,sans-Serif" font-size="14.00">samples = 418</text>
<text text-anchor="start" x="452.5" y="-17.3" font-family="Helvetica,sans-Serif" font-size="14.00">value = [350, 68]</text>
</g>
<!-- 2&#45;&gt;6 -->
<g id="edge6" class="edge">
<title>2&#45;&gt;6</title>
<path fill="none" stroke="black" d="M406.48,-130.96C428.3,-111.98 455.6,-88.24 477.29,-69.37"/>
<polygon fill="black" stroke="black" points="479.76,-71.86 485.01,-62.66 475.16,-66.58 479.76,-71.86"/>
</g>
</g>
</svg>
