<?xml version="1.0" encoding="UTF-8" standalone="no"?>
<!DOCTYPE svg PUBLIC "-//W3C//DTD SVG 1.1//EN"
 "http://www.w3.org/Graphics/SVG/1.1/DTD/svg11.dtd">
<!-- Generated by graphviz version 2.43.0 (0)
 -->
<!-- Title: Tree Pages: 1 -->
<svg width="1175pt" height="708pt"
 viewBox="0.00 0.00 1174.50 707.60" xmlns="http://www.w3.org/2000/svg" xmlns:xlink="http://www.w3.org/1999/xlink">
<g id="graph0" class="graph" transform="scale(1 1) rotate(0) translate(4 703.6)">
<title>Tree</title>
<polygon fill="white" stroke="transparent" points="-4,4 -4,-703.6 1170.5,-703.6 1170.5,4 -4,4"/>
<!-- 0 -->
<g id="node1" class="node">
<title>0</title>
<path fill="#f5ceb2" stroke="black" d="M627.5,-698C627.5,-698 502.5,-698 502.5,-698 496.5,-698 490.5,-692 490.5,-686 490.5,-686 490.5,-642 490.5,-642 490.5,-636 496.5,-630 502.5,-630 502.5,-630 627.5,-630 627.5,-630 633.5,-630 639.5,-636 639.5,-642 639.5,-642 639.5,-686 639.5,-686 639.5,-692 633.5,-698 627.5,-698"/>
<text text-anchor="start" x="530" y="-682.8" font-family="Helvetica,sans-Serif" font-size="14.00">Sex ≤ 0.5</text>
<text text-anchor="start" x="525.5" y="-667.8" font-family="Helvetica,sans-Serif" font-size="14.00">gini = 0.47</text>
<text text-anchor="start" x="512" y="-652.8" font-family="Helvetica,sans-Serif" font-size="14.00">samples = 668</text>
<text text-anchor="start" x="498.5" y="-637.8" font-family="Helvetica,sans-Serif" font-size="14.00">value = [415, 253]</text>
</g>
<!-- 1 -->
<g id="node2" class="node">
<title>1</title>
<path fill="#7ebfee" stroke="black" d="M476,-591C476,-591 360,-591 360,-591 354,-591 348,-585 348,-579 348,-579 348,-535 348,-535 348,-529 354,-523 360,-523 360,-523 476,-523 476,-523 482,-523 488,-529 488,-535 488,-535 488,-579 488,-579 488,-585 482,-591 476,-591"/>
<text text-anchor="start" x="374.5" y="-575.8" font-family="Helvetica,sans-Serif" font-size="14.00">Pclass ≤ 2.5</text>
<text text-anchor="start" x="378.5" y="-560.8" font-family="Helvetica,sans-Serif" font-size="14.00">gini = 0.38</text>
<text text-anchor="start" x="365" y="-545.8" font-family="Helvetica,sans-Serif" font-size="14.00">samples = 229</text>
<text text-anchor="start" x="356" y="-530.8" font-family="Helvetica,sans-Serif" font-size="14.00">value = [59, 170]</text>
</g>
<!-- 0&#45;&gt;1 -->
<g id="edge1" class="edge">
<title>0&#45;&gt;1</title>
<path fill="none" stroke="black" d="M518.49,-629.78C503.87,-619.33 487.59,-607.71 472.47,-596.91"/>
<polygon fill="black" stroke="black" points="474.38,-593.97 464.21,-591.01 470.31,-599.67 474.38,-593.97"/>
<text text-anchor="middle" x="468.32" y="-611.97" font-family="Helvetica,sans-Serif" font-size="14.00">True</text>
</g>
<!-- 8 -->
<g id="node9" class="node">
<title>8</title>
<path fill="#eb9e67" stroke="black" d="M779,-591C779,-591 663,-591 663,-591 657,-591 651,-585 651,-579 651,-579 651,-535 651,-535 651,-529 657,-523 663,-523 663,-523 779,-523 779,-523 785,-523 791,-529 791,-535 791,-535 791,-579 791,-579 791,-585 785,-591 779,-591"/>
<text text-anchor="start" x="668" y="-575.8" font-family="Helvetica,sans-Serif" font-size="14.00">LogFare ≤ 3.31</text>
<text text-anchor="start" x="681.5" y="-560.8" font-family="Helvetica,sans-Serif" font-size="14.00">gini = 0.31</text>
<text text-anchor="start" x="668" y="-545.8" font-family="Helvetica,sans-Serif" font-size="14.00">samples = 439</text>
<text text-anchor="start" x="659" y="-530.8" font-family="Helvetica,sans-Serif" font-size="14.00">value = [356, 83]</text>
</g>
<!-- 0&#45;&gt;8 -->
<g id="edge8" class="edge">
<title>0&#45;&gt;8</title>
<path fill="none" stroke="black" d="M614.36,-629.78C630.02,-619.24 647.47,-607.49 663.64,-596.61"/>
<polygon fill="black" stroke="black" points="665.62,-599.49 671.96,-591.01 661.71,-593.69 665.62,-599.49"/>
<text text-anchor="middle" x="667.17" y="-611.84" font-family="Helvetica,sans-Serif" font-size="14.00">False</text>
</g>
<!-- 2 -->
<g id="node3" class="node">
<title>2</title>
<path fill="#40a0e6" stroke="black" d="M254.5,-484C254.5,-484 147.5,-484 147.5,-484 141.5,-484 135.5,-478 135.5,-472 135.5,-472 135.5,-428 135.5,-428 135.5,-422 141.5,-416 147.5,-416 147.5,-416 254.5,-416 254.5,-416 260.5,-416 266.5,-422 266.5,-428 266.5,-428 266.5,-472 266.5,-472 266.5,-478 260.5,-484 254.5,-484"/>
<text text-anchor="start" x="159" y="-468.8" font-family="Helvetica,sans-Serif" font-size="14.00">SibSp ≤ 0.5</text>
<text text-anchor="start" x="161.5" y="-453.8" font-family="Helvetica,sans-Serif" font-size="14.00">gini = 0.06</text>
<text text-anchor="start" x="148" y="-438.8" font-family="Helvetica,sans-Serif" font-size="14.00">samples = 120</text>
<text text-anchor="start" x="143.5" y="-423.8" font-family="Helvetica,sans-Serif" font-size="14.00">value = [4, 116]</text>
</g>
<!-- 1&#45;&gt;2 -->
<g id="edge2" class="edge">
<title>1&#45;&gt;2</title>
<path fill="none" stroke="black" d="M349.64,-522.92C326.17,-511.57 299.79,-498.8 275.84,-487.21"/>
<polygon fill="black" stroke="black" points="277.32,-484.04 266.79,-482.84 274.27,-490.34 277.32,-484.04"/>
</g>
<!-- 5 -->
<g id="node6" class="node">
<title>5</title>
<path fill="#fffdfb" stroke="black" d="M471.5,-484C471.5,-484 364.5,-484 364.5,-484 358.5,-484 352.5,-478 352.5,-472 352.5,-472 352.5,-428 352.5,-428 352.5,-422 358.5,-416 364.5,-416 364.5,-416 471.5,-416 471.5,-416 477.5,-416 483.5,-422 483.5,-428 483.5,-428 483.5,-472 483.5,-472 483.5,-478 477.5,-484 471.5,-484"/>
<text text-anchor="start" x="369.5" y="-468.8" font-family="Helvetica,sans-Serif" font-size="14.00">LogFare ≤ 2.7</text>
<text text-anchor="start" x="383" y="-453.8" font-family="Helvetica,sans-Serif" font-size="14.00">gini = 0.5</text>
<text text-anchor="start" x="365" y="-438.8" font-family="Helvetica,sans-Serif" font-size="14.00">samples = 109</text>
<text text-anchor="start" x="360.5" y="-423.8" font-family="Helvetica,sans-Serif" font-size="14.00">value = [55, 54]</text>
</g>
<!-- 1&#45;&gt;5 -->
<g id="edge5" class="edge">
<title>1&#45;&gt;5</title>
<path fill="none" stroke="black" d="M418,-522.78C418,-513.69 418,-503.7 418,-494.15"/>
<polygon fill="black" stroke="black" points="421.5,-494.01 418,-484.01 414.5,-494.01 421.5,-494.01"/>
</g>
<!-- 3 -->
<g id="node4" class="node">
<title>3</title>
<path fill="#3c9ee5" stroke="black" d="M110,-368.5C110,-368.5 12,-368.5 12,-368.5 6,-368.5 0,-362.5 0,-356.5 0,-356.5 0,-327.5 0,-327.5 0,-321.5 6,-315.5 12,-315.5 12,-315.5 110,-315.5 110,-315.5 116,-315.5 122,-321.5 122,-327.5 122,-327.5 122,-356.5 122,-356.5 122,-362.5 116,-368.5 110,-368.5"/>
<text text-anchor="start" x="21.5" y="-353.3" font-family="Helvetica,sans-Serif" font-size="14.00">gini = 0.03</text>
<text text-anchor="start" x="12.5" y="-338.3" font-family="Helvetica,sans-Serif" font-size="14.00">samples = 67</text>
<text text-anchor="start" x="8" y="-323.3" font-family="Helvetica,sans-Serif" font-size="14.00">value = [1, 66]</text>
</g>
<!-- 2&#45;&gt;3 -->
<g id="edge3" class="edge">
<title>2&#45;&gt;3</title>
<path fill="none" stroke="black" d="M157.09,-415.75C139.86,-402.71 120.17,-387.8 103.12,-374.89"/>
<polygon fill="black" stroke="black" points="105.07,-371.98 94.98,-368.73 100.84,-377.56 105.07,-371.98"/>
</g>
<!-- 4 -->
<g id="node5" class="node">
<title>4</title>
<path fill="#45a3e7" stroke="black" d="M250,-368.5C250,-368.5 152,-368.5 152,-368.5 146,-368.5 140,-362.5 140,-356.5 140,-356.5 140,-327.5 140,-327.5 140,-321.5 146,-315.5 152,-315.5 152,-315.5 250,-315.5 250,-315.5 256,-315.5 262,-321.5 262,-327.5 262,-327.5 262,-356.5 262,-356.5 262,-362.5 256,-368.5 250,-368.5"/>
<text text-anchor="start" x="161.5" y="-353.3" font-family="Helvetica,sans-Serif" font-size="14.00">gini = 0.11</text>
<text text-anchor="start" x="152.5" y="-338.3" font-family="Helvetica,sans-Serif" font-size="14.00">samples = 53</text>
<text text-anchor="start" x="148" y="-323.3" font-family="Helvetica,sans-Serif" font-size="14.00">value = [3, 50]</text>
</g>
<!-- 2&#45;&gt;4 -->
<g id="edge4" class="edge">
<title>2&#45;&gt;4</title>
<path fill="none" stroke="black" d="M201,-415.75C201,-404.01 201,-390.76 201,-378.82"/>
<polygon fill="black" stroke="black" points="204.5,-378.73 201,-368.73 197.5,-378.73 204.5,-378.73"/>
</g>
<!-- 6 -->
<g id="node7" class="node">
<title>6</title>
<path fill="#cbe5f8" stroke="black" d="M399.5,-368.5C399.5,-368.5 292.5,-368.5 292.5,-368.5 286.5,-368.5 280.5,-362.5 280.5,-356.5 280.5,-356.5 280.5,-327.5 280.5,-327.5 280.5,-321.5 286.5,-315.5 292.5,-315.5 292.5,-315.5 399.5,-315.5 399.5,-315.5 405.5,-315.5 411.5,-321.5 411.5,-327.5 411.5,-327.5 411.5,-356.5 411.5,-356.5 411.5,-362.5 405.5,-368.5 399.5,-368.5"/>
<text text-anchor="start" x="306.5" y="-353.3" font-family="Helvetica,sans-Serif" font-size="14.00">gini = 0.49</text>
<text text-anchor="start" x="297.5" y="-338.3" font-family="Helvetica,sans-Serif" font-size="14.00">samples = 59</text>
<text text-anchor="start" x="288.5" y="-323.3" font-family="Helvetica,sans-Serif" font-size="14.00">value = [25, 34]</text>
</g>
<!-- 5&#45;&gt;6 -->
<g id="edge6" class="edge">
<title>5&#45;&gt;6</title>
<path fill="none" stroke="black" d="M395.42,-415.75C387.04,-403.42 377.53,-389.42 369.11,-377.02"/>
<polygon fill="black" stroke="black" points="371.99,-375.04 363.48,-368.73 366.2,-378.97 371.99,-375.04"/>
</g>
<!-- 7 -->
<g id="node8" class="node">
<title>7</title>
<path fill="#f6d5bd" stroke="black" d="M548.5,-368.5C548.5,-368.5 441.5,-368.5 441.5,-368.5 435.5,-368.5 429.5,-362.5 429.5,-356.5 429.5,-356.5 429.5,-327.5 429.5,-327.5 429.5,-321.5 435.5,-315.5 441.5,-315.5 441.5,-315.5 548.5,-315.5 548.5,-315.5 554.5,-315.5 560.5,-321.5 560.5,-327.5 560.5,-327.5 560.5,-356.5 560.5,-356.5 560.5,-362.5 554.5,-368.5 548.5,-368.5"/>
<text text-anchor="start" x="455.5" y="-353.3" font-family="Helvetica,sans-Serif" font-size="14.00">gini = 0.48</text>
<text text-anchor="start" x="446.5" y="-338.3" font-family="Helvetica,sans-Serif" font-size="14.00">samples = 50</text>
<text text-anchor="start" x="437.5" y="-323.3" font-family="Helvetica,sans-Serif" font-size="14.00">value = [30, 20]</text>
</g>
<!-- 5&#45;&gt;7 -->
<g id="edge7" class="edge">
<title>5&#45;&gt;7</title>
<path fill="none" stroke="black" d="M442.15,-415.75C451.11,-403.42 461.28,-389.42 470.29,-377.02"/>
<polygon fill="black" stroke="black" points="473.26,-378.88 476.31,-368.73 467.6,-374.76 473.26,-378.88"/>
</g>
<!-- 9 -->
<g id="node10" class="node">
<title>9</title>
<path fill="#e99659" stroke="black" d="M779,-484C779,-484 663,-484 663,-484 657,-484 651,-478 651,-472 651,-472 651,-428 651,-428 651,-422 657,-416 663,-416 663,-416 779,-416 779,-416 785,-416 791,-422 791,-428 791,-428 791,-472 791,-472 791,-478 785,-484 779,-484"/>
<text text-anchor="start" x="681" y="-468.8" font-family="Helvetica,sans-Serif" font-size="14.00">Age ≤ 20.5</text>
<text text-anchor="start" x="681.5" y="-453.8" font-family="Helvetica,sans-Serif" font-size="14.00">gini = 0.24</text>
<text text-anchor="start" x="668" y="-438.8" font-family="Helvetica,sans-Serif" font-size="14.00">samples = 320</text>
<text text-anchor="start" x="659" y="-423.8" font-family="Helvetica,sans-Serif" font-size="14.00">value = [275, 45]</text>
</g>
<!-- 8&#45;&gt;9 -->
<g id="edge9" class="edge">
<title>8&#45;&gt;9</title>
<path fill="none" stroke="black" d="M721,-522.78C721,-513.69 721,-503.7 721,-494.15"/>
<polygon fill="black" stroke="black" points="724.5,-494.01 721,-484.01 717.5,-494.01 724.5,-494.01"/>
</g>
<!-- 18 -->
<g id="node19" class="node">
<title>18</title>
<path fill="#f1bc96" stroke="black" d="M1005.5,-484C1005.5,-484 898.5,-484 898.5,-484 892.5,-484 886.5,-478 886.5,-472 886.5,-472 886.5,-428 886.5,-428 886.5,-422 892.5,-416 898.5,-416 898.5,-416 1005.5,-416 1005.5,-416 1011.5,-416 1017.5,-422 1017.5,-428 1017.5,-428 1017.5,-472 1017.5,-472 1017.5,-478 1011.5,-484 1005.5,-484"/>
<text text-anchor="start" x="910" y="-468.8" font-family="Helvetica,sans-Serif" font-size="14.00">SibSp ≤ 0.5</text>
<text text-anchor="start" x="912.5" y="-453.8" font-family="Helvetica,sans-Serif" font-size="14.00">gini = 0.43</text>
<text text-anchor="start" x="899" y="-438.8" font-family="Helvetica,sans-Serif" font-size="14.00">samples = 119</text>
<text text-anchor="start" x="894.5" y="-423.8" font-family="Helvetica,sans-Serif" font-size="14.00">value = [81, 38]</text>
</g>
<!-- 8&#45;&gt;18 -->
<g id="edge18" class="edge">
<title>8&#45;&gt;18</title>
<path fill="none" stroke="black" d="M791.25,-524.07C818.44,-511.71 849.6,-497.54 877.21,-485"/>
<polygon fill="black" stroke="black" points="878.77,-488.13 886.42,-480.81 875.87,-481.76 878.77,-488.13"/>
</g>
<!-- 10 -->
<g id="node11" class="node">
<title>10</title>
<path fill="#f1b992" stroke="black" d="M697.5,-368.5C697.5,-368.5 590.5,-368.5 590.5,-368.5 584.5,-368.5 578.5,-362.5 578.5,-356.5 578.5,-356.5 578.5,-327.5 578.5,-327.5 578.5,-321.5 584.5,-315.5 590.5,-315.5 590.5,-315.5 697.5,-315.5 697.5,-315.5 703.5,-315.5 709.5,-321.5 709.5,-327.5 709.5,-327.5 709.5,-356.5 709.5,-356.5 709.5,-362.5 703.5,-368.5 697.5,-368.5"/>
<text text-anchor="start" x="604.5" y="-353.3" font-family="Helvetica,sans-Serif" font-size="14.00">gini = 0.43</text>
<text text-anchor="start" x="595.5" y="-338.3" font-family="Helvetica,sans-Serif" font-size="14.00">samples = 55</text>
<text text-anchor="start" x="586.5" y="-323.3" font-family="Helvetica,sans-Serif" font-size="14.00">value = [38, 17]</text>
</g>
<!-- 9&#45;&gt;10 -->
<g id="edge10" class="edge">
<title>9&#45;&gt;10</title>
<path fill="none" stroke="black" d="M696.85,-415.75C687.89,-403.42 677.72,-389.42 668.71,-377.02"/>
<polygon fill="black" stroke="black" points="671.4,-374.76 662.69,-368.73 665.74,-378.88 671.4,-374.76"/>
</g>
<!-- 11 -->
<g id="node12" class="node">
<title>11</title>
<path fill="#e89050" stroke="black" d="M856,-376C856,-376 740,-376 740,-376 734,-376 728,-370 728,-364 728,-364 728,-320 728,-320 728,-314 734,-308 740,-308 740,-308 856,-308 856,-308 862,-308 868,-314 868,-320 868,-320 868,-364 868,-364 868,-370 862,-376 856,-376"/>
<text text-anchor="start" x="758" y="-360.8" font-family="Helvetica,sans-Serif" font-size="14.00">Age ≤ 32.5</text>
<text text-anchor="start" x="758.5" y="-345.8" font-family="Helvetica,sans-Serif" font-size="14.00">gini = 0.19</text>
<text text-anchor="start" x="745" y="-330.8" font-family="Helvetica,sans-Serif" font-size="14.00">samples = 265</text>
<text text-anchor="start" x="736" y="-315.8" font-family="Helvetica,sans-Serif" font-size="14.00">value = [237, 28]</text>
</g>
<!-- 9&#45;&gt;11 -->
<g id="edge11" class="edge">
<title>9&#45;&gt;11</title>
<path fill="none" stroke="black" d="M745.15,-415.75C752.39,-405.79 760.42,-394.73 767.99,-384.32"/>
<polygon fill="black" stroke="black" points="770.89,-386.28 773.93,-376.13 765.22,-382.16 770.89,-386.28"/>
</g>
<!-- 12 -->
<g id="node13" class="node">
<title>12</title>
<path fill="#e99356" stroke="black" d="M781,-269C781,-269 665,-269 665,-269 659,-269 653,-263 653,-257 653,-257 653,-213 653,-213 653,-207 659,-201 665,-201 665,-201 781,-201 781,-201 787,-201 793,-207 793,-213 793,-213 793,-257 793,-257 793,-263 787,-269 781,-269"/>
<text text-anchor="start" x="678.5" y="-253.8" font-family="Helvetica,sans-Serif" font-size="14.00">Age ≤ 24.75</text>
<text text-anchor="start" x="683.5" y="-238.8" font-family="Helvetica,sans-Serif" font-size="14.00">gini = 0.22</text>
<text text-anchor="start" x="670" y="-223.8" font-family="Helvetica,sans-Serif" font-size="14.00">samples = 181</text>
<text text-anchor="start" x="661" y="-208.8" font-family="Helvetica,sans-Serif" font-size="14.00">value = [158, 23]</text>
</g>
<!-- 11&#45;&gt;12 -->
<g id="edge12" class="edge">
<title>11&#45;&gt;12</title>
<path fill="none" stroke="black" d="M774.27,-307.78C767.36,-298.11 759.73,-287.43 752.52,-277.32"/>
<polygon fill="black" stroke="black" points="755.24,-275.11 746.58,-269.01 749.54,-279.18 755.24,-275.11"/>
</g>
<!-- 17 -->
<g id="node18" class="node">
<title>17</title>
<path fill="#e78946" stroke="black" d="M921,-261.5C921,-261.5 823,-261.5 823,-261.5 817,-261.5 811,-255.5 811,-249.5 811,-249.5 811,-220.5 811,-220.5 811,-214.5 817,-208.5 823,-208.5 823,-208.5 921,-208.5 921,-208.5 927,-208.5 933,-214.5 933,-220.5 933,-220.5 933,-249.5 933,-249.5 933,-255.5 927,-261.5 921,-261.5"/>
<text text-anchor="start" x="832.5" y="-246.3" font-family="Helvetica,sans-Serif" font-size="14.00">gini = 0.11</text>
<text text-anchor="start" x="823.5" y="-231.3" font-family="Helvetica,sans-Serif" font-size="14.00">samples = 84</text>
<text text-anchor="start" x="819" y="-216.3" font-family="Helvetica,sans-Serif" font-size="14.00">value = [79, 5]</text>
</g>
<!-- 11&#45;&gt;17 -->
<g id="edge17" class="edge">
<title>11&#45;&gt;17</title>
<path fill="none" stroke="black" d="M821.41,-307.78C829.86,-295.79 839.41,-282.24 847.92,-270.17"/>
<polygon fill="black" stroke="black" points="851,-271.88 853.9,-261.69 845.28,-267.84 851,-271.88"/>
</g>
<!-- 13 -->
<g id="node14" class="node">
<title>13</title>
<path fill="#e88d4c" stroke="black" d="M704,-161C704,-161 588,-161 588,-161 582,-161 576,-155 576,-149 576,-149 576,-105 576,-105 576,-99 582,-93 588,-93 588,-93 704,-93 704,-93 710,-93 716,-99 716,-105 716,-105 716,-149 716,-149 716,-155 710,-161 704,-161"/>
<text text-anchor="start" x="593" y="-145.8" font-family="Helvetica,sans-Serif" font-size="14.00">LogFare ≤ 2.18</text>
<text text-anchor="start" x="606.5" y="-130.8" font-family="Helvetica,sans-Serif" font-size="14.00">gini = 0.16</text>
<text text-anchor="start" x="593" y="-115.8" font-family="Helvetica,sans-Serif" font-size="14.00">samples = 114</text>
<text text-anchor="start" x="584" y="-100.8" font-family="Helvetica,sans-Serif" font-size="14.00">value = [104, 10]</text>
</g>
<!-- 12&#45;&gt;13 -->
<g id="edge13" class="edge">
<title>12&#45;&gt;13</title>
<path fill="none" stroke="black" d="M698.85,-200.75C691.61,-190.79 683.58,-179.73 676.01,-169.32"/>
<polygon fill="black" stroke="black" points="678.78,-167.16 670.07,-161.13 673.11,-171.28 678.78,-167.16"/>
</g>
<!-- 16 -->
<g id="node17" class="node">
<title>16</title>
<path fill="#eb9f69" stroke="black" d="M853.5,-153.5C853.5,-153.5 746.5,-153.5 746.5,-153.5 740.5,-153.5 734.5,-147.5 734.5,-141.5 734.5,-141.5 734.5,-112.5 734.5,-112.5 734.5,-106.5 740.5,-100.5 746.5,-100.5 746.5,-100.5 853.5,-100.5 853.5,-100.5 859.5,-100.5 865.5,-106.5 865.5,-112.5 865.5,-112.5 865.5,-141.5 865.5,-141.5 865.5,-147.5 859.5,-153.5 853.5,-153.5"/>
<text text-anchor="start" x="760.5" y="-138.3" font-family="Helvetica,sans-Serif" font-size="14.00">gini = 0.31</text>
<text text-anchor="start" x="751.5" y="-123.3" font-family="Helvetica,sans-Serif" font-size="14.00">samples = 67</text>
<text text-anchor="start" x="742.5" y="-108.3" font-family="Helvetica,sans-Serif" font-size="14.00">value = [54, 13]</text>
</g>
<!-- 12&#45;&gt;16 -->
<g id="edge16" class="edge">
<title>12&#45;&gt;16</title>
<path fill="none" stroke="black" d="M747.15,-200.75C756.11,-188.42 766.28,-174.42 775.29,-162.02"/>
<polygon fill="black" stroke="black" points="778.26,-163.88 781.31,-153.73 772.6,-159.76 778.26,-163.88"/>
</g>
<!-- 14 -->
<g id="node15" class="node">
<title>14</title>
<path fill="#e99254" stroke="black" d="M625,-53.5C625,-53.5 527,-53.5 527,-53.5 521,-53.5 515,-47.5 515,-41.5 515,-41.5 515,-12.5 515,-12.5 515,-6.5 521,-0.5 527,-0.5 527,-0.5 625,-0.5 625,-0.5 631,-0.5 637,-6.5 637,-12.5 637,-12.5 637,-41.5 637,-41.5 637,-47.5 631,-53.5 625,-53.5"/>
<text text-anchor="start" x="536.5" y="-38.3" font-family="Helvetica,sans-Serif" font-size="14.00">gini = 0.21</text>
<text text-anchor="start" x="527.5" y="-23.3" font-family="Helvetica,sans-Serif" font-size="14.00">samples = 50</text>
<text text-anchor="start" x="523" y="-8.3" font-family="Helvetica,sans-Serif" font-size="14.00">value = [44, 6]</text>
</g>
<!-- 13&#45;&gt;14 -->
<g id="edge14" class="edge">
<title>13&#45;&gt;14</title>
<path fill="none" stroke="black" d="M622.3,-92.82C615.17,-82.84 607.35,-71.89 600.19,-61.86"/>
<polygon fill="black" stroke="black" points="603.02,-59.81 594.36,-53.71 597.33,-63.88 603.02,-59.81"/>
</g>
<!-- 15 -->
<g id="node16" class="node">
<title>15</title>
<path fill="#e78946" stroke="black" d="M765,-53.5C765,-53.5 667,-53.5 667,-53.5 661,-53.5 655,-47.5 655,-41.5 655,-41.5 655,-12.5 655,-12.5 655,-6.5 661,-0.5 667,-0.5 667,-0.5 765,-0.5 765,-0.5 771,-0.5 777,-6.5 777,-12.5 777,-12.5 777,-41.5 777,-41.5 777,-47.5 771,-53.5 765,-53.5"/>
<text text-anchor="start" x="676.5" y="-38.3" font-family="Helvetica,sans-Serif" font-size="14.00">gini = 0.12</text>
<text text-anchor="start" x="667.5" y="-23.3" font-family="Helvetica,sans-Serif" font-size="14.00">samples = 64</text>
<text text-anchor="start" x="663" y="-8.3" font-family="Helvetica,sans-Serif" font-size="14.00">value = [60, 4]</text>
</g>
<!-- 13&#45;&gt;15 -->
<g id="edge15" class="edge">
<title>13&#45;&gt;15</title>
<path fill="none" stroke="black" d="M669.7,-92.82C676.83,-82.84 684.65,-71.89 691.81,-61.86"/>
<polygon fill="black" stroke="black" points="694.67,-63.88 697.64,-53.71 688.98,-59.81 694.67,-63.88"/>
</g>
<!-- 19 -->
<g id="node20" class="node">
<title>19</title>
<path fill="#f6d5bd" stroke="black" d="M1005.5,-368.5C1005.5,-368.5 898.5,-368.5 898.5,-368.5 892.5,-368.5 886.5,-362.5 886.5,-356.5 886.5,-356.5 886.5,-327.5 886.5,-327.5 886.5,-321.5 892.5,-315.5 898.5,-315.5 898.5,-315.5 1005.5,-315.5 1005.5,-315.5 1011.5,-315.5 1017.5,-321.5 1017.5,-327.5 1017.5,-327.5 1017.5,-356.5 1017.5,-356.5 1017.5,-362.5 1011.5,-368.5 1005.5,-368.5"/>
<text text-anchor="start" x="912.5" y="-353.3" font-family="Helvetica,sans-Serif" font-size="14.00">gini = 0.48</text>
<text text-anchor="start" x="903.5" y="-338.3" font-family="Helvetica,sans-Serif" font-size="14.00">samples = 60</text>
<text text-anchor="start" x="894.5" y="-323.3" font-family="Helvetica,sans-Serif" font-size="14.00">value = [36, 24]</text>
</g>
<!-- 18&#45;&gt;19 -->
<g id="edge19" class="edge">
<title>18&#45;&gt;19</title>
<path fill="none" stroke="black" d="M952,-415.75C952,-404.01 952,-390.76 952,-378.82"/>
<polygon fill="black" stroke="black" points="955.5,-378.73 952,-368.73 948.5,-378.73 955.5,-378.73"/>
</g>
<!-- 20 -->
<g id="node21" class="node">
<title>20</title>
<path fill="#eda877" stroke="black" d="M1154.5,-368.5C1154.5,-368.5 1047.5,-368.5 1047.5,-368.5 1041.5,-368.5 1035.5,-362.5 1035.5,-356.5 1035.5,-356.5 1035.5,-327.5 1035.5,-327.5 1035.5,-321.5 1041.5,-315.5 1047.5,-315.5 1047.5,-315.5 1154.5,-315.5 1154.5,-315.5 1160.5,-315.5 1166.5,-321.5 1166.5,-327.5 1166.5,-327.5 1166.5,-356.5 1166.5,-356.5 1166.5,-362.5 1160.5,-368.5 1154.5,-368.5"/>
<text text-anchor="start" x="1061.5" y="-353.3" font-family="Helvetica,sans-Serif" font-size="14.00">gini = 0.36</text>
<text text-anchor="start" x="1052.5" y="-338.3" font-family="Helvetica,sans-Serif" font-size="14.00">samples = 59</text>
<text text-anchor="start" x="1043.5" y="-323.3" font-family="Helvetica,sans-Serif" font-size="14.00">value = [45, 14]</text>
</g>
<!-- 18&#45;&gt;20 -->
<g id="edge20" class="edge">
<title>18&#45;&gt;20</title>
<path fill="none" stroke="black" d="M998.74,-415.75C1017.24,-402.59 1038.41,-387.53 1056.67,-374.54"/>
<polygon fill="black" stroke="black" points="1058.71,-377.38 1064.83,-368.73 1054.65,-371.68 1058.71,-377.38"/>
</g>
</g>
</svg>
